<?xml version="1.0" encoding="utf-8"?>
<!-- Generator: Adobe Illustrator 25.2.0, SVG Export Plug-In . SVG Version: 6.00 Build 0)  -->
<svg version="1.1" id="Layer_1" xmlns="http://www.w3.org/2000/svg" xmlns:xlink="http://www.w3.org/1999/xlink" x="0px" y="0px"
	 viewBox="0 0 148 20" style="enable-background:new 0 0 148 20;" xml:space="preserve">
<style type="text/css">
	.st0{opacity:0.7;}
</style>
<path class="st0" d="M7.2,1.1c-0.8,0-1.4,0.6-1.4,1.4c0,0.8,0.6,1.4,1.4,1.4c0.8,0,1.4-0.6,1.4-1.4C8.5,1.7,8,1.1,7.2,1.1z
	 M6.2,18.9h2V6.7h-2V18.9z M17.4,8.2c1.6,0,2.9,0.7,3.6,2.1l1.6-0.8c-0.9-2.1-2.9-3.2-5.2-3.2c-3.4,0-5.9,2.5-5.9,6.4
	s2.5,6.4,5.8,6.4c2.3,0,4.3-1.1,5.2-3.2l-1.6-0.8c-0.7,1.4-2,2.1-3.5,2.1c-2.4,0-3.9-1.7-3.9-4.6S15,8.2,17.4,8.2z M30.8,6.4
	c-3.5,0-5.9,2.5-5.9,6.4s2.4,6.4,5.9,6.4s5.9-2.5,5.9-6.4S34.2,6.4,30.8,6.4z M30.8,17.4c-2.4,0-3.9-1.7-3.9-4.6
	c0-2.9,1.5-4.6,3.9-4.6s3.9,1.7,3.9,4.6C34.7,15.7,33.1,17.4,30.8,17.4z M45.7,6.4c-1.8,0-3.1,0.7-3.9,1.9V6.7h-2v12.2h2v-6.8
	c0-2.7,1.4-3.9,3.5-3.9c2,0,3.3,1.1,3.3,3.5v7.2h2v-7.6C50.6,8.2,48.6,6.4,45.7,6.4z M59.6,6.4c-3.5,0-5.9,2.5-5.9,6.4
	s2.4,6.4,5.9,6.4c3.5,0,5.9-2.5,5.9-6.4S63.1,6.4,59.6,6.4z M59.6,17.4c-2.4,0-3.9-1.7-3.9-4.6c0-2.9,1.5-4.6,3.9-4.6
	s3.9,1.7,3.9,4.6C63.5,15.7,62,17.4,59.6,17.4z M71.6,2.8h-2v3.1c0,0.6-0.3,0.8-0.8,0.8h-1.7v1.7h2.4v6.7c0,2.6,1.1,3.8,3.9,3.8h2
	v-1.8h-1.8c-1.5,0-2.1-0.6-2.1-2.2V8.4h3.9V6.7h-3.9V2.8z M83.4,6.4c-3.3,0-5.7,2.4-5.7,6.4c0,4.2,2.7,6.5,5.9,6.5c2.1,0,4-1,5-2.5
	l-1.4-1c-0.8,1-1.9,1.6-3.4,1.6c-2.2,0-3.9-1.3-4.1-3.9H89C89.3,8.7,86.6,6.4,83.4,6.4z M79.7,11.7c0.2-2.2,1.6-3.6,3.7-3.6
	c1.9,0,3.4,1.1,3.6,3.6H79.7z M103.2,6.7h-2.6L94.1,13V1.3h-2v17.6h2v-3.4l2.6-2.5l4.2,5.9h2.4l-5.3-7.3L103.2,6.7z M110.5,6.4
	c-2.3,0-4.2,1.1-5.2,2.9l1.5,0.9c0.8-1.2,2-2,3.7-2c2.1,0,3.2,0.9,3.2,2.3c0,0.7-0.4,1-1.1,1.1l-3,0.3c-3,0.3-4.4,1.6-4.4,3.7
	c0,2,1.3,3.6,4.1,3.6c1.9,0,3.5-0.8,4.4-2v1.7h2v-8.5C115.7,7.8,113.3,6.4,110.5,6.4z M113.7,13.8c0,2.6-2.2,3.6-4.1,3.6
	c-1.7,0-2.5-0.8-2.5-1.9c0-1.1,0.8-1.8,2.7-2.1l2.7-0.3c0.5,0,0.9-0.2,1.2-0.3V13.8z"/>
</svg>
